<svg xmlns="http://www.w3.org/2000/svg" width="85.565" height="85.565" viewBox="0 0 22.639 22.639" xmlns:v="https://vecta.io/nano">
  <path d="M4.505 1.874c-.082.003-.166.015-.252.035-.345.081-.629.276-.845.583-.208.295-.279.609-.22.937s.23.575.507.746a1.21 1.21 0 0 0 .913.115 1.38 1.38 0 0 0 .797-.535 1.25 1.25 0 0 0 .268-.923.99.99 0 0 0-.484-.76 1.12 1.12 0 0 0-.684-.198zm11.349 2.892c-1.024-.03-1.89.299-2.554.921-.884.828-1.285 1.931-1.303 3.232l-.042 3.038 1.134.089.143-2.887c.051-1.03.366-1.832.998-2.37a2.38 2.38 0 0 1 1.491-.578 3.18 3.18 0 0 0 .023.516c.042.243.092.437.151.581.068.147.145.278.232.393l.189.217.093.067-1.497 1.574.174.037a2.62 2.62 0 0 1 .426.139 3.34 3.34 0 0 1 .495.254c.163.101.293.233.39.395s.13.335.103.517c-.037.246-.138.424-.3.536-.162.103-.363.119-.606.053a1.69 1.69 0 0 1-.844-.512l-.43 1.152.143.113c.088.075.236.162.444.269a3.12 3.12 0 0 0 .66.274c.56.162 1.011.15 1.372-.076.368-.231.616-.645.729-1.256a1.95 1.95 0 0 0-.009-.763c-.053-.253-.128-.46-.225-.619-.095-.168-.211-.322-.346-.461-.133-.148-.232-.24-.292-.278-.051-.044-.096-.077-.134-.097l1.189-1.078-.094-.06c-.061-.049-.131-.124-.21-.226s-.156-.221-.231-.358a1.73 1.73 0 0 1-.168-.534c-.028-.167-.036-.344-.021-.531.832.303 1.453.846 1.836 1.58.454.843.541 1.792.311 2.823l-.645 2.887 1.158.617.789-3.038a5.39 5.39 0 0 0-.396-3.889c-.634-1.252-1.744-2.139-3.248-2.51a5.12 5.12 0 0 0-1.076-.153zm-9.112.015a5.11 5.11 0 0 0-1.074.158c-1.501.376-2.605 1.273-3.232 2.541-.622 1.257-.711 2.576-.357 3.881l.824 3.037 1.131-.612-.681-2.887c-.243-1.032-.163-1.984.29-2.833.291-.553.711-.999 1.251-1.317.044.172.099.33.165.475a2.21 2.21 0 0 0 .304.469 1.5 1.5 0 0 0 .325.248l.235.104.104.014-.959 2.282.174-.062a2.58 2.58 0 0 1 .436-.105c.175-.029.351-.042.529-.038a.81.81 0 0 1 .467.15c.133.096.211.236.236.418.034.246-.01.466-.128.662-.12.187-.299.317-.542.397-.338.111-.645.118-.927.01l-.082 1.344.166.02c.104.017.266.01.489-.017.224-.017.452-.065.685-.142.558-.186.961-.466 1.224-.876.268-.419.38-.93.318-1.541a1.7 1.7 0 0 0-.21-.684c-.115-.2-.238-.347-.369-.44-.131-.102-.278-.181-.438-.237-.162-.064-.277-.097-.343-.099-.059-.013-.109-.019-.15-.017l.793-1.607-.102-.007a.98.98 0 0 1-.252-.1c-.1-.053-.202-.124-.308-.212s-.205-.225-.3-.409a1.91 1.91 0 0 1-.165-.481c.85-.132 1.559.066 2.096.538.63.537.951 1.337 1.015 2.367l.178 2.887 1.155-.097-.077-3.038c-.033-1.31-.448-2.415-1.342-3.24-.665-.613-1.53-.937-2.552-.901zm4.292 7.934c-.751.014-1.423.243-2.032.698s-1.087 1.03-1.432 1.748c-.337.709-.529 1.474-.563 2.308-.036.879.123 1.633.489 2.255.366.612.945.961 1.725 1.01.863.055 1.571-.666 1.948-1.452.39.789.939 1.523 1.793 1.483.779-.037 1.356-.381 1.721-1.003.365-.633.516-1.406.465-2.308-.048-.856-.257-1.64-.613-2.36a4.44 4.44 0 0 0-1.46-1.747c-.615-.442-1.29-.646-2.042-.632zm4.693 1.531l-.617 1.215.043.056c.627.736 1.256 1.275 1.942 1.618 1.093.546 1.856.21 2.261-1.36l.194-.753-1.112-.602-.097.438c-.085.383-.232.632-.436.751s-.432.116-.691-.004c-.232-.107-.473-.287-.73-.536l-.534-.533-.224-.291zm-4.68.056c.682-.009 1.284.298 1.825.943a3.55 3.55 0 0 1 .883 2.248c.019.477-.058.869-.233 1.173s-.431.466-.764.483c-.35.017-.599-.138-.791-.449-.156-.446-.168-.824-.036-1.236l-1.19.002c-.132.421-.282.936-.531 1.235-.228.274-.44.457-.782.439-.334-.018-.597-.18-.785-.48-.188-.31-.275-.696-.264-1.155a3.47 3.47 0 0 1 .848-2.224c.538-.646 1.138-.968 1.821-.977z"/>
  <style>
    path { fill: #000; }
    @media (prefers-color-scheme: dark) {
      path { fill: #FFF; }
    }
  </style>
</svg>
